<mxfile host="app.diagrams.net" modified="2024-03-31T19:17:39.443Z" agent="Mozilla/5.0 (Windows NT 10.0; Win64; x64) AppleWebKit/537.36 (KHTML, like Gecko) Chrome/121.0.0.0 Safari/537.36" etag="gQ2gFVKHZbvI0rs19wN_" version="24.2.1" type="device">
  <diagram id="Dx692dsSHiyoGgMj4neL" name="Trang-1">
    <mxGraphModel dx="1006" dy="1728" grid="1" gridSize="10" guides="1" tooltips="1" connect="1" arrows="1" fold="1" page="1" pageScale="1" pageWidth="827" pageHeight="1169" math="0" shadow="0">
      <root>
        <mxCell id="0" />
        <mxCell id="1" parent="0" />
        <mxCell id="Bc-r16N6B5rYVI-km0tc-1" value="Employee" style="shape=umlActor;verticalLabelPosition=bottom;verticalAlign=top;html=1;outlineConnect=0;" parent="1" vertex="1">
          <mxGeometry x="400" y="260" width="30" height="60" as="geometry" />
        </mxCell>
        <mxCell id="Bc-r16N6B5rYVI-km0tc-3" value="" style="whiteSpace=wrap;html=1;aspect=fixed;" parent="1" vertex="1">
          <mxGeometry x="510" y="-50" width="610" height="610" as="geometry" />
        </mxCell>
        <mxCell id="Bc-r16N6B5rYVI-km0tc-5" value="" style="endArrow=none;html=1;rounded=0;exitX=1;exitY=0.3333333333333333;exitDx=0;exitDy=0;exitPerimeter=0;entryX=0;entryY=0.5;entryDx=0;entryDy=0;" parent="1" source="Bc-r16N6B5rYVI-km0tc-1" target="Bc-r16N6B5rYVI-km0tc-6" edge="1">
          <mxGeometry width="50" height="50" relative="1" as="geometry">
            <mxPoint x="540" y="260" as="sourcePoint" />
            <mxPoint x="580" y="240" as="targetPoint" />
          </mxGeometry>
        </mxCell>
        <mxCell id="Bc-r16N6B5rYVI-km0tc-6" value="view movie list" style="ellipse;whiteSpace=wrap;html=1;" parent="1" vertex="1">
          <mxGeometry x="630" y="140" width="130" height="80" as="geometry" />
        </mxCell>
        <mxCell id="Bc-r16N6B5rYVI-km0tc-7" value="movie search" style="ellipse;whiteSpace=wrap;html=1;" parent="1" vertex="1">
          <mxGeometry x="630" y="330" width="130" height="80" as="geometry" />
        </mxCell>
        <mxCell id="Bc-r16N6B5rYVI-km0tc-8" value="" style="endArrow=none;html=1;rounded=0;exitX=1;exitY=0.3333333333333333;exitDx=0;exitDy=0;exitPerimeter=0;entryX=0;entryY=0.5;entryDx=0;entryDy=0;" parent="1" source="Bc-r16N6B5rYVI-km0tc-1" target="Bc-r16N6B5rYVI-km0tc-7" edge="1">
          <mxGeometry width="50" height="50" relative="1" as="geometry">
            <mxPoint x="450" y="320" as="sourcePoint" />
            <mxPoint x="690" y="210" as="targetPoint" />
          </mxGeometry>
        </mxCell>
        <mxCell id="Bc-r16N6B5rYVI-km0tc-9" value="&amp;lt;&amp;lt;include&amp;gt;&amp;gt;" style="endArrow=open;endSize=12;dashed=1;html=1;rounded=0;entryX=0;entryY=0.5;entryDx=0;entryDy=0;exitX=1;exitY=0.5;exitDx=0;exitDy=0;" parent="1" source="Bc-r16N6B5rYVI-km0tc-6" target="Bc-r16N6B5rYVI-km0tc-10" edge="1">
          <mxGeometry width="160" relative="1" as="geometry">
            <mxPoint x="710" y="289.5" as="sourcePoint" />
            <mxPoint x="870" y="289.5" as="targetPoint" />
          </mxGeometry>
        </mxCell>
        <mxCell id="Bc-r16N6B5rYVI-km0tc-10" value="movie is showing" style="ellipse;whiteSpace=wrap;html=1;" parent="1" vertex="1">
          <mxGeometry x="870" y="70" width="130" height="80" as="geometry" />
        </mxCell>
        <mxCell id="Bc-r16N6B5rYVI-km0tc-11" value="upcoming movie" style="ellipse;whiteSpace=wrap;html=1;" parent="1" vertex="1">
          <mxGeometry x="870" y="200" width="130" height="80" as="geometry" />
        </mxCell>
        <mxCell id="Bc-r16N6B5rYVI-km0tc-12" value="&amp;lt;&amp;lt;include&amp;gt;&amp;gt;" style="endArrow=open;endSize=12;dashed=1;html=1;rounded=0;entryX=0;entryY=0.5;entryDx=0;entryDy=0;exitX=1;exitY=0.5;exitDx=0;exitDy=0;" parent="1" source="Bc-r16N6B5rYVI-km0tc-6" target="Bc-r16N6B5rYVI-km0tc-11" edge="1">
          <mxGeometry width="160" relative="1" as="geometry">
            <mxPoint x="750" y="339.5" as="sourcePoint" />
            <mxPoint x="867" y="170" as="targetPoint" />
          </mxGeometry>
        </mxCell>
        <mxCell id="Bc-r16N6B5rYVI-km0tc-13" value="&lt;b&gt;&lt;font style=&quot;font-size: 15px;&quot;&gt;Movie list&lt;/font&gt;&lt;/b&gt;" style="text;html=1;align=center;verticalAlign=middle;whiteSpace=wrap;rounded=0;" parent="1" vertex="1">
          <mxGeometry x="745" y="-40" width="140" height="30" as="geometry" />
        </mxCell>
        <mxCell id="Bc-r16N6B5rYVI-km0tc-14" value="search by movie name" style="ellipse;whiteSpace=wrap;html=1;" parent="1" vertex="1">
          <mxGeometry x="870" y="330" width="130" height="80" as="geometry" />
        </mxCell>
        <mxCell id="Bc-r16N6B5rYVI-km0tc-16" value="" style="endArrow=block;endSize=16;endFill=0;html=1;rounded=0;entryX=1;entryY=0.5;entryDx=0;entryDy=0;exitX=0;exitY=0.5;exitDx=0;exitDy=0;" parent="1" source="Bc-r16N6B5rYVI-km0tc-14" target="Bc-r16N6B5rYVI-km0tc-7" edge="1">
          <mxGeometry width="160" relative="1" as="geometry">
            <mxPoint x="720" y="289.5" as="sourcePoint" />
            <mxPoint x="880" y="289.5" as="targetPoint" />
          </mxGeometry>
        </mxCell>
        <mxCell id="Bc-r16N6B5rYVI-km0tc-17" value="&amp;lt;&amp;lt;extend&amp;gt;&amp;gt;" style="endArrow=open;endSize=12;dashed=1;html=1;rounded=0;entryX=0.5;entryY=1;entryDx=0;entryDy=0;exitX=0.5;exitY=0;exitDx=0;exitDy=0;" parent="1" source="Bc-r16N6B5rYVI-km0tc-7" target="Bc-r16N6B5rYVI-km0tc-6" edge="1">
          <mxGeometry width="160" relative="1" as="geometry">
            <mxPoint x="750" y="225" as="sourcePoint" />
            <mxPoint x="860" y="285" as="targetPoint" />
          </mxGeometry>
        </mxCell>
      </root>
    </mxGraphModel>
  </diagram>
</mxfile>
